<svg version="1" xmlns="http://www.w3.org/2000/svg" width="2666.667" height="2666.667" viewBox="0 0 2000.000000 2000.000000"><path d="M1153.5 336.7c-18.1 2.4-48.8 14.9-73.1 29.8-5.8 3.6-10.8 6.5-11 6.5-1.4 0-33.3 23.1-47.9 34.8-36.1 28.8-75.7 67.2-106 102.7-3.3 3.8-6.2 7.2-6.5 7.5-.3.3-4.9 5.9-10.2 12.5-44.2 55.4-70.9 103.9-78.3 142-.7 3.8-1.3 11.7-1.3 17.5-.2 34.5 16.5 64.5 47.4 85.7 4.9 3.3 9.1 6.1 9.4 6 .3 0 2.4 1 4.8 2.2l4.3 2.2-1.8 2.4c-1 1.3-8.3 11.2-16.2 21.9L852.8 830l-17.7.1c-9.7.1-18.7.2-20.1.3-1.4.2-6.5.6-11.5 1-10.3.8-10.9.8-27 3.6-35.6 6-69.6 17.1-102.5 33.5-18.8 9.3-45.2 25.2-55.1 32.9-1.4 1.2-3.6 2.8-4.9 3.6-14.5 9.7-40.7 33.1-59.5 53.2-43.7 46.8-76.5 104.5-93.4 164.4-2.1 7.7-4.2 15.4-4.5 17-.2 1.6-.7 4-1.1 5.4-.7 2.8-2.2 10.9-3 15.7-1.2 7.7-1.4 9-2 13.3-1.3 10.1-.8 9.5-10.3 12.9-8.6 3-24.4 7.3-31.2 8.5-1.9.3-4.6.8-6 1.1-1.3.2-4.2.7-6.5 1.1-14.7 2.1-24 4.9-26 7.7-2.5 3.5-1.9 6.5 1.8 8.7 8.2 5.1 22.7 6.8 60 7 15.4.1 15.7.2 15.8 2.3.7 30.4.9 33.1 3.4 54.7.7 6 3.3 20.9 5.1 29.5.9 3.8 1.7 7.8 1.9 8.7 4 18.9 14.7 48.2 25.2 69.1 4.8 9.7 18.7 33.4 20.2 34.7.4.3 2.4 3 4.6 6 11.6 16.3 33 39.3 48.5 52.1 35.8 29.7 79.3 51.5 128.3 64.4 7.3 1.9 15 3.7 17.2 4 2.2.4 4.8.8 5.7 1.1 3.9 1.1 11.6 2.4 23.8 3.9 3.6.4 7.4.9 8.5 1.1 14.1 2.7 76.4 2.6 94.5-.1 1.4-.2 6.3-.9 11-1.5 10.2-1.3 11.4-1.5 21.6-3.5 4.3-.9 9.5-1.8 11.4-2.1 1.9-.3 3.8-.8 4.1-1 .4-.2 2.4-.6 4.4-1 8.8-1.4 37.3-9.7 55-16.1 26.7-9.6 57.4-24 79-37 1.1-.7 2.9-1.6 4-2.2 5.2-2.3 40.6-26.8 51.5-35.6 37-29.7 70.7-65.3 94.3-99.5 15.7-22.8 24.2-36.8 42.2-69.7 6.4-11.6 30.5-59.6 30.5-60.7 0-.2 1.9-4.4 4.1-9.3 7.9-16.8 20.3-45.5 28.6-65.8 2.5-6.1 5.1-12.4 5.8-14 2-4.4 11.3-28.2 20-51 4.2-11 7.9-20.7 8.2-21.5.3-.8.7-2 .9-2.5.6-1.9 18.5-50 19.4-52 .5-1.1 3.9-10.3 7.5-20.5s6.9-19.4 7.4-20.5c.5-1.1 1.4-3.4 2-5 11.3-32.2 45.7-124.9 50.6-136 .7-1.7 3.6-8.9 6.5-16 15.4-38.3 35-81.3 48-105 3.2-6 11.1-20.3 12.5-22.8 9.6-17 31.7-50.8 47.7-72.8 35.5-48.8 54.9-69.9 94.3-102.4 7.2-5.9 14.2-11.8 15.7-13.1 1.5-1.3 3.2-2.4 3.7-2.4s1.1-.4 1.3-.8c.2-.5 3.7-3.7 7.8-7.2 24-20.3 32.1-31.9 31.6-45.1-.3-10.4-4.9-16.5-15.1-20-4.5-1.5-26.3-1.9-36-.6-48.2 6.5-107.5 44.7-185.3 119.4-3.5 3.4-11.4 10.8-17.4 16.5-6.1 5.7-12.8 12-14.9 14-8.1 7.9-22 18.5-37.1 28.5-8.6 5.6-16 10.3-16.3 10.3-.4 0-1.9.8-3.3 1.9-8.2 5.6-58.8 32.1-82.2 42.9-17.7 8.1-39.3 17.5-51.5 22.3-5.5 2.2-11.3 4.6-13 5.3-1.6.7-7.5 3-13 5.1-5.5 2-10.9 4.1-12 4.6-8 3.3-56.3 18.6-64.5 20.4-.8.2-6.2 1.4-12 2.8s-13.9 3-18 3.7c-4.1.6-8.6 1.4-10 1.6-1.4.3-12.1.8-23.9 1.1-18.1.5-21.3.4-20.6-.8.5-.8 3-4.6 5.7-8.6 2.6-4 4.8-7.6 4.8-8.2 0-.5.3-1.1.8-1.3.6-.3 5.8-8.2 18.3-28.3 15.7-25 48.7-81.5 60.9-104 2.4-4.4 7-13 10.2-19 11.3-20.9 34.7-69.1 42.4-87 6.4-15.2 15.6-39.1 17-44.5.2-.8 1.5-5.3 2.8-10 1.4-4.7 2.7-9.9 3.1-11.5 4.9-24.7 4.4-38.2-1.8-47.7-4.7-7.1-9.3-9.3-20.2-9.4-4.9 0-10.3.1-12 .3zm-50.1 88.5c2.1 2.9 2 4.6-.5 12.1-6.7 19.9-35.1 69.9-84.2 148.2-17.5 27.9-20 31.9-28.3 44.5-2.7 4.1-5.2 8.2-5.6 9-.4.8-3.8 6.1-7.5 11.7-3.8 5.7-11.9 18.1-18.2 27.8l-11.3 17.4-3.3-2.5c-9.8-7.4-16.1-19.6-17.2-32.9-.5-7 .5-12.5 4.5-23.5 2.2-6.2 14.3-30.5 20-40.4 2.6-4.4 5.2-8.9 5.7-9.8 20.9-36.7 63-94.8 90.3-124.7 28-30.7 49.8-45.2 55.6-36.9zm212.7 252.4c1.7 1.5 1.2 2.2-7 12.4-8.1 10.1-10.4 13.3-21.6 29.5-4.4 6.5-16 24.8-19.2 30.5-1.1 1.9-3.7 6.3-5.7 9.7-2 3.4-3.6 6.6-3.6 7.2 0 .6-.4 1.1-.8 1.1s-1.3 1.2-1.9 2.7c-.7 1.6-3.3 6.6-5.8 11.3-5.7 10.4-19.8 38.3-25.5 50.5-2.4 4.9-6.3 13.3-8.7 18.5-7 14.8-24.1 53.3-34.8 78-12.2 28.3-32.1 74.1-34.8 80-1.1 2.5-2.1 4.7-2.2 5-.1.3-.8 2.1-1.7 4-.8 1.9-3.4 7.8-5.8 13-2.3 5.2-5.5 12.3-7.1 15.8-1.6 3.5-2.9 6.5-2.9 6.7 0 .1-2.6 5.8-5.9 12.6-3.2 6.8-6.8 14.6-8.1 17.4-2.9 6.4-27.4 55.4-31 62-1.5 2.7-4.6 8.6-7 13-31.1 57.5-67.2 108.3-102.5 144.1-12 12.2-26.7 25.4-33.9 30.4-1.2.8-2.7 2-3.5 2.7-3 3-30.2 20.5-39.1 25.1-22.6 12-50.6 21.9-72 25.6-1.9.3-4.6.8-6 1.1-4 .8-13.3 2-24 3-5.7.5-34.2.5-39.5 0-2.2-.2-7.6-.7-11.9-1-4.4-.4-8.3-.8-8.6-1-.3-.2-2.6-.6-5-1-15.7-2.2-39.4-8.4-51.5-13.5-1.1-.4-6-2.5-11-4.5-16-6.6-36.6-18.8-50.5-30-21.2-17-36.9-36.7-48-59.8-10.6-22.2-15-39.4-16.5-64.7-1-15.5-1.7-14.4 14.7-22.5 7.8-3.9 18.9-9.8 24.7-13.3 5.7-3.4 10.5-6.2 10.7-6.2 1.8 0 47.2-32.3 57.9-41.1 11.5-9.6 29.4-24.8 33.6-28.6 34.2-31 62.9-60 102.6-103.6l5.2-5.8 6.8.5c6.7.5 12.5 1.2 17.3 2.2 1.4.2 3.9.7 5.5 1 7.2 1.3 22.9 5.6 33.6 9.3 40.9 14.1 75.2 38.6 94.8 67.8 12.8 19.1 20.3 43.3 19.7 63.3-.2 6.4-.8 8.8-4.4 16.6-6.3 13.7-5.3 18.4 3.7 18.4 8.2-.1 16.5-5 27.7-16.6 21.3-21.9 39.5-56.7 47.9-91.9 2.3-9.3 2.7-11.7 3.9-19.3 3.5-22.1 2.5-48.9-2.5-70.2-5.9-24.5-19.2-51.4-34.8-70.2-4.4-5.3-21.7-22.7-25.9-26.1-17.8-14.2-36.5-25-54.7-31.8-4.9-1.8-9.4-3.6-9.8-4-.5-.4-.2-1.5.7-2.5.8-1.1 4.3-5.7 7.7-10.4 5.5-7.5 12.9-17.5 15.2-20.5.4-.5 2.3-3.1 4.3-5.8l3.5-4.7 6.7-.1c3.7-.1 7.8-.2 9.2-.4 1.4-.1 6.1-.5 10.5-.9s8.7-.9 9.5-1.1c.8-.2 3.5-.7 6-1 2.5-.3 5.2-.8 6-1 .8-.2 3.5-.7 6-1 2.4-.4 4.7-.8 5-1 .3-.2 2.3-.6 4.5-.9 2.2-.4 6.9-1.4 10.5-2.2 7.9-1.9 7.7-1.8 12-2.8 4.5-1 24.9-6.7 36.4-10.1 23.3-6.8 72.5-24.3 90.1-32 1.7-.7 10.2-4.3 19-8s19.8-8.5 24.3-10.6c4.6-2.1 8.6-3.9 8.9-3.9.2 0 10.4-4.9 22.6-10.9 21.1-10.3 42.8-21.9 58.2-30.9 3.9-2.2 7.2-4.1 7.4-4.1.3-.1 1.2.6 2.2 1.5zm-612.2 328c-12.3 13-37.8 37.4-54.8 52.4-4 3.6-8.1 7.2-9 8-16 14.4-69.6 55.8-70.8 54.7-1.5-1.6 18.5-37.4 24.2-43.3.5-.6 2.1-2.5 3.5-4.3 8.1-10.8 22.4-24.5 39-37.4 7.6-6 25.5-16.2 38.5-22 8.2-3.6 29.7-11.4 31.9-11.6.6-.1-.6 1.5-2.5 3.5z"/></svg>